<svg width="22" height="27" viewBox="0 0 22 27" fill="none" xmlns="http://www.w3.org/2000/svg">
<path d="M5.49677 25.594C4.99471 25.2639 4.54975 24.856 4.17898 24.386C3.77113 23.9009 3.39325 23.3919 3.04739 22.8618C2.23577 21.6867 1.59928 20.4024 1.15744 19.0484C0.626662 17.4755 0.369629 15.9678 0.369629 14.4932C0.369629 12.8464 0.730113 11.4088 1.43516 10.2008C1.95781 9.25664 2.72623 8.46762 3.66093 7.9154C4.56676 7.35935 5.60757 7.05506 6.67371 7.03457C7.04693 7.03457 7.44879 7.08805 7.87532 7.19029C8.18169 7.27601 8.55491 7.41128 9.01089 7.57958C9.591 7.80057 9.91011 7.93584 10.0183 7.96887C10.3581 8.09156 10.6438 8.14504 10.8682 8.14504C11.0385 8.14504 11.2788 8.09156 11.5518 8.00977C11.7054 7.95629 11.995 7.86192 12.4096 7.68654C12.8202 7.53869 13.1433 7.41207 13.4003 7.31769C13.7943 7.20287 14.1754 7.0967 14.5152 7.04322C14.9181 6.98046 15.3269 6.96384 15.7335 6.99368C16.4383 7.0392 17.1325 7.18679 17.7938 7.43173C18.8752 7.86192 19.7498 8.53354 20.4007 9.48829C20.1256 9.65588 19.8674 9.84918 19.6296 10.0655C19.1121 10.519 18.6712 11.0513 18.3238 11.6424C17.8696 12.4501 17.6342 13.36 17.6402 14.2841C17.6569 15.4189 17.9514 16.4185 18.5315 17.2828C18.958 17.9233 19.5122 18.4711 20.1604 18.8926C20.4922 19.1136 20.7779 19.2654 21.0517 19.3677C20.9236 19.7609 20.7867 20.1415 20.6251 20.519C20.2588 21.3655 19.8147 22.1771 19.2986 22.9436C18.8386 23.6035 18.4782 24.095 18.2044 24.4222C17.7779 24.9215 17.3673 25.303 16.9527 25.5688C16.4967 25.8676 15.958 26.0273 15.4105 26.0273C15.0397 26.0414 14.669 25.997 14.3123 25.896C14.0059 25.7937 13.7027 25.6828 13.4043 25.5562C13.0941 25.4154 12.7742 25.2963 12.447 25.2C11.6383 24.9947 10.7903 24.9933 9.98093 25.196C9.64909 25.2904 9.32999 25.4005 9.01486 25.5358C8.57162 25.7198 8.27719 25.8433 8.10689 25.896C7.7671 25.9943 7.41457 26.0556 7.05807 26.0761C6.5066 26.0761 5.99253 25.9203 5.48324 25.605L5.49677 25.594ZM12.7701 6.23554C12.0491 6.5918 11.3608 6.74359 10.6772 6.69404C10.5698 6.01376 10.6772 5.31776 10.9629 4.55569C11.2061 3.91007 11.5655 3.31325 12.0237 2.79405C12.5075 2.24748 13.0946 1.79948 13.7521 1.47517C14.4524 1.11891 15.12 0.926231 15.7582 0.897919C15.841 1.61044 15.7582 2.31117 15.4932 3.06852C15.248 3.73801 14.8893 4.36138 14.4325 4.91195C13.9662 5.45926 13.394 5.909 12.7494 6.23476L12.7701 6.23554Z" fill="#007756"/>
</svg>
