<svg width="904" height="814" viewBox="0 0 904 814" fill="none" xmlns="http://www.w3.org/2000/svg">
<rect width="903.21" height="813.269" rx="5.01094" fill="url(#paint0_linear_681_4098)"/>
<g opacity="0.1">
<path d="M678.271 776.203C742.538 774.473 775.456 720.869 780.158 653.431V652.566C780.158 650.154 779.014 648.583 777.524 647.853C776.263 647.236 774.811 647.734 773.581 648.412V648.412C772.747 648.873 771.991 649.483 771.355 650.193C741.877 683.031 711.641 692.338 681.405 692.338C645.353 692.338 609.3 679.368 575.599 679.368V679.368C566.085 679.368 555.977 663.517 561.364 655.676C644.737 534.324 655.19 338.631 745.796 195.566C747.781 192.431 750.375 189.399 750.375 185.688V185.688C750.375 173.584 723.728 164.938 697.864 164.938C677.487 164.938 657.108 170.125 648.488 183.094C581.482 275.805 557.469 516.342 500.932 653.533C484.954 692.305 429.396 712.653 429.396 754.588V754.588C429.396 766.692 437.233 776.203 449.773 776.203C480.339 776.203 496.798 740.754 521.094 740.754H521.878C561.066 741.619 621.056 776.203 676.703 776.203H678.271Z" fill="white"/>
</g>
<g opacity="0.13">
<path d="M708.892 165.515L708.898 165.507L708.904 165.499C713.13 159.14 720.266 154.653 728.925 151.755C737.58 148.858 747.712 147.566 757.863 147.566C770.747 147.566 783.814 149.72 793.644 153.371C798.56 155.196 802.639 157.386 805.479 159.845C808.32 162.305 809.874 164.989 809.874 167.816C809.874 169.552 809.268 171.151 808.392 172.728C807.83 173.74 807.182 174.702 806.523 175.681C806.138 176.253 805.75 176.83 805.372 177.426C760.026 249.027 734.744 333.786 710.387 415.749L710.103 416.704C685.838 498.36 662.422 577.158 620.951 637.521C619.514 639.611 619.131 642.207 619.481 644.879C619.83 647.551 620.916 650.334 622.467 652.852C624.018 655.372 626.047 657.649 628.307 659.3C630.565 660.95 633.082 661.996 635.598 661.996C652.119 661.996 669.215 665.123 686.656 668.313L687.529 668.472C705.255 671.714 723.325 674.965 741.404 674.965C771.771 674.965 802.146 665.607 831.726 632.654C832.327 631.985 833.039 631.41 833.822 630.978C835.037 630.308 836.284 629.931 837.303 630.43C838.61 631.071 839.657 632.46 839.657 634.694V635.542C837.308 669.19 827.923 699.339 811.153 721.282C794.392 743.211 770.238 756.968 738.263 757.831H736.702C708.968 757.831 680.129 749.211 653.273 740.455C650.466 739.54 647.681 738.624 644.921 737.716C634.487 734.282 624.414 730.968 614.911 728.305C602.894 724.937 591.749 722.6 581.888 722.382H581.877H581.093C574.893 722.382 569.217 724.645 563.737 727.995C558.893 730.955 554.166 734.788 549.349 738.695C548.724 739.202 548.098 739.71 547.47 740.218C536.486 749.089 524.857 757.831 509.772 757.831C503.636 757.831 498.679 755.508 495.251 751.727C491.819 747.94 489.895 742.661 489.895 736.716C489.895 715.984 503.621 700.547 519.517 685.364C521.738 683.242 524.002 681.124 526.276 678.998C532.111 673.541 538.004 668.03 543.379 662.251C550.854 654.215 557.367 645.623 561.393 635.852C585.281 577.888 603.364 501.494 621.322 425.631C624.63 411.656 627.934 397.699 631.269 383.879C641.992 339.445 653.038 296.416 665.588 258.706C678.14 220.99 692.186 188.63 708.892 165.515Z" stroke="white"/>
</g>
<defs>
<linearGradient id="paint0_linear_681_4098" x1="63.2385" y1="-348.912" x2="1079.26" y2="-427.519" gradientUnits="userSpaceOnUse">
<stop stop-color="#018383"/>
<stop offset="1" stop-color="#36B390"/>
</linearGradient>
</defs>
</svg>
