<svg width="127" height="62" viewBox="0 0 127 62" fill="none" xmlns="http://www.w3.org/2000/svg">
<path d="M0.528809 30.6589C0.528809 13.7806 14.2113 0 31.0896 0C47.9678 0 61.6504 13.7806 61.6504 30.6589C61.6504 47.5371 47.9678 61.3178 31.0896 61.3178C14.2113 61.3178 0.528809 47.5371 0.528809 30.6589Z" fill="url(#paint0_linear_668_2898)"/>
<mask id="mask0_668_2898" style="mask-type:alpha" maskUnits="userSpaceOnUse" x="0" y="0" width="62" height="62">
<path d="M0.5 30.7957C0.5 13.9461 14.1593 0.286804 31.0089 0.286804C47.8585 0.286804 61.5178 13.9461 61.5178 30.7957C61.5178 47.6453 47.8585 61.3046 31.0089 61.3046C14.1593 61.3046 0.5 47.6453 0.5 30.7957Z" fill="url(#paint1_linear_668_2898)"/>
</mask>
<g mask="url(#mask0_668_2898)">
<path d="M-14.4188 42.7784C-14.9791 41.92 -14.7367 40.7699 -13.8776 40.2107L35.4735 8.08307C36.3312 7.52476 37.4789 7.76668 38.0382 8.62365C38.5985 9.48203 38.3561 10.6321 37.497 11.1913L-11.8542 43.3189C-12.7118 43.8772 -13.8595 43.6353 -14.4188 42.7784Z" fill="#D400FF"/>
<path d="M-12.392 45.8836C-12.952 45.0255 -12.71 43.8758 -11.8515 43.3164L33.6859 13.6409C34.5435 13.082 35.6918 13.3237 36.2513 14.181C36.8114 15.039 36.5693 16.1887 35.7108 16.7482L-9.82656 46.4237C-10.6842 46.9826 -11.8325 46.7408 -12.392 45.8836Z" fill="#5300FF"/>
<path d="M-10.3653 48.9883C-10.9251 48.1306 -10.6836 46.9816 -9.82596 46.4218L29.7154 20.6143C31.4001 19.5147 33.3846 21.5085 32.2772 23.1881C32.1373 23.4003 31.9554 23.5814 31.7425 23.7203L-7.79883 49.5277C-8.6565 50.0875 -9.80557 49.846 -10.3653 48.9883Z" fill="#0059FF"/>
<path d="M-8.33846 52.0943C-8.89825 51.2367 -8.65676 50.0876 -7.79908 49.5278L30.512 24.5234C31.3697 23.9636 32.5188 24.2051 33.0786 25.0628C33.6383 25.9204 33.3968 27.0695 32.5392 27.6293L-5.77194 52.6337C-6.62961 53.1935 -7.77868 52.952 -8.33846 52.0943Z" fill="#00E0FF"/>
<path d="M-13.8115 57.8271L27.6055 30.7957L29.6326 33.9016L-11.7844 60.9331L-13.8115 57.8271Z" fill="#00FFB5"/>
<path d="M-10.7711 62.486C-11.3309 61.6283 -11.0894 60.4793 -10.2317 59.9195L28.0793 34.9152C28.937 34.3554 30.0861 34.5969 30.6459 35.4546C31.2056 36.3122 30.9641 37.4613 30.1065 38.0211L-8.20459 63.0254C-9.06226 63.5852 -10.2113 63.3437 -10.7711 62.486Z" fill="#00E717"/>
<path d="M-8.74148 65.5954C-9.30252 64.7358 -9.06048 63.5842 -8.20089 63.0231L24.9408 41.3926C26.6505 40.2767 28.7065 42.2092 27.6986 43.9847C27.5438 44.2574 27.3255 44.4886 27.0622 44.6588L-6.1762 66.1405C-7.03557 66.696 -8.18223 66.4523 -8.74148 65.5954Z" fill="#00B300"/>
<path d="M-0.230515 64.5173C-0.790324 63.6595 -0.549824 62.5105 0.306976 61.9493L23.6125 46.6838C24.726 45.9545 26.2244 46.5734 26.4986 47.8759C26.6593 48.6395 26.3344 49.4235 25.6806 49.8495L2.33789 65.0581C1.47921 65.6176 0.329628 65.3755 -0.230515 64.5173Z" fill="#93FF00"/>
<path d="M-9.31553 74.8765C-9.87531 74.0188 -9.63382 72.8697 -8.77615 72.31L29.5349 47.3056C30.3926 46.7458 31.5417 46.9873 32.1015 47.845C32.6612 48.7027 32.4197 49.8518 31.562 50.4116L-6.74903 75.4159C-7.6067 75.9756 -8.75576 75.7341 -9.31553 74.8765Z" fill="#F7E100"/>
<path d="M-2.18578 74.4982C-2.74586 73.6401 -2.50262 72.4902 -1.643 71.9324L33.224 49.3071C33.5153 49.1182 33.855 49.0176 34.2022 49.0176C35.9893 49.0176 36.6809 51.3427 35.1844 52.3194L0.377339 75.0369C-0.479199 75.5959 -1.62675 75.3548 -2.18578 74.4982Z" fill="#FF6200"/>
<path d="M-0.159776 77.6021C-0.719552 76.7444 -0.478059 75.5953 0.379612 75.0356L38.6907 50.0311C39.5484 49.4714 40.6975 49.7129 41.2572 50.5705C41.817 51.4282 41.5755 52.5773 40.7178 53.137L2.40673 78.1415C1.54906 78.7012 0.399998 78.4597 -0.159776 77.6021Z" fill="#E30505"/>
</g>
<path d="M37.818 53.6017C43.063 53.4699 45.7495 49.3864 46.1332 44.2491V44.1832C46.1332 43.9972 46.0375 43.8769 45.9138 43.8222C45.8122 43.7773 45.698 43.8146 45.5992 43.8654C45.5293 43.9014 45.4655 43.9497 45.411 44.0064C43.0065 46.5048 40.5401 47.2129 38.0738 47.2129C35.1315 47.2129 32.1892 46.2249 29.4388 46.2249C28.6803 46.2249 27.9028 44.9345 28.3493 44.3214C35.0882 35.0687 35.9608 20.2258 43.3315 9.36566C43.4918 9.12958 43.7026 8.90241 43.7026 8.61709C43.7026 7.69501 41.5279 7.03638 39.4171 7.03638C37.7541 7.03638 36.0909 7.43155 35.3874 8.4195C29.9338 15.4628 27.9699 33.706 23.3827 44.1713C22.0539 47.2029 17.5068 48.645 17.5068 51.9551C17.5068 52.8772 18.1465 53.6017 19.1699 53.6017C21.6644 53.6017 23.0077 50.9013 24.9906 50.9013H25.0545C28.2527 50.9671 33.1486 53.6017 37.6901 53.6017H37.818Z" fill="white"/>
<path d="M85.3805 8.41706V12.3019C85.3801 12.6452 85.2436 12.9743 85.0008 13.2171C84.7581 13.4598 84.4289 13.5964 84.0856 13.5968H80.2008V17.4816C80.2004 17.8249 80.0639 18.1541 79.8211 18.3968C79.5783 18.6396 79.2492 18.7761 78.9059 18.7765H75.0211C74.6777 18.7761 74.3486 18.6396 74.1058 18.3968C73.8631 18.1541 73.7265 17.8249 73.7261 17.4816V13.5968H69.8413C69.498 13.5964 69.1689 13.4598 68.9261 13.2171C68.6833 12.9743 68.5468 12.6452 68.5464 12.3019V8.41706C68.5468 8.07374 68.6833 7.7446 68.9261 7.50183C69.1689 7.25907 69.498 7.12252 69.8413 7.12212H73.7261V3.23732C73.7265 2.894 73.8631 2.56486 74.1058 2.32209C74.3486 2.07933 74.6777 1.94278 75.0211 1.94238H78.9059C79.2492 1.94278 79.5783 2.07933 79.8211 2.32209C80.0639 2.56486 80.2004 2.894 80.2008 3.23732V7.12212H84.0856C84.4289 7.12252 84.7581 7.25907 85.0008 7.50183C85.2436 7.7446 85.3801 8.07374 85.3805 8.41706Z" fill="url(#paint2_linear_668_2898)"/>
<path d="M76.8591 35.7937V37.7189H69.787V35.7937H76.8591ZM70.4642 23.6326V37.7189H68.0359V23.6326H70.4642ZM84.4054 35.6195V30.6274C84.4054 30.2533 84.3377 29.9308 84.2022 29.6599C84.0668 29.3891 83.8604 29.1794 83.583 29.0311C83.3121 28.8827 82.9703 28.8086 82.5575 28.8086C82.177 28.8086 81.848 28.8731 81.5707 29.0021C81.2934 29.1311 81.0773 29.3052 80.9225 29.5245C80.7677 29.7438 80.6903 29.9921 80.6903 30.2694H78.3684C78.3684 29.8567 78.4684 29.4568 78.6683 29.0698C78.8682 28.6828 79.1585 28.3377 79.539 28.0346C79.9196 27.7315 80.3743 27.4928 80.9031 27.3187C81.432 27.1445 82.0254 27.0575 82.6833 27.0575C83.4702 27.0575 84.1667 27.1897 84.773 27.4541C85.3857 27.7186 85.8662 28.1184 86.2145 28.6538C86.5693 29.1827 86.7466 29.847 86.7466 30.6468V35.3003C86.7466 35.7776 86.7789 36.2065 86.8434 36.587C86.9143 36.9611 87.0143 37.2868 87.1433 37.5641V37.7189H84.7537C84.644 37.4674 84.5569 37.1481 84.4924 36.7611C84.4344 36.3677 84.4054 35.9872 84.4054 35.6195ZM84.744 31.353L84.7633 32.7945H83.0896C82.6575 32.7945 82.277 32.8365 81.948 32.9203C81.6191 32.9977 81.345 33.1138 81.1257 33.2686C80.9064 33.4234 80.7419 33.6104 80.6323 33.8297C80.5226 34.049 80.4678 34.2973 80.4678 34.5747C80.4678 34.852 80.5323 35.1068 80.6613 35.339C80.7903 35.5647 80.9773 35.7421 81.2224 35.8711C81.474 36.0001 81.7771 36.0646 82.1318 36.0646C82.6091 36.0646 83.0251 35.9678 83.3799 35.7743C83.741 35.5744 84.0248 35.3325 84.2312 35.0487C84.4376 34.7585 84.5473 34.4844 84.5602 34.2264L85.3148 35.2616C85.2374 35.526 85.1052 35.8098 84.9181 36.1129C84.7311 36.4161 84.486 36.7063 84.1829 36.9837C83.8862 37.2545 83.5282 37.4771 83.109 37.6512C82.6962 37.8254 82.2189 37.9124 81.6771 37.9124C80.9934 37.9124 80.3839 37.777 79.8486 37.5061C79.3133 37.2288 78.894 36.8579 78.5909 36.3935C78.2878 35.9227 78.1362 35.3906 78.1362 34.7972C78.1362 34.2425 78.2394 33.7523 78.4458 33.3266C78.6586 32.8945 78.9682 32.5333 79.3746 32.2431C79.7873 31.9528 80.2904 31.7335 80.8838 31.5852C81.4772 31.4304 82.1544 31.353 82.9155 31.353H84.744ZM93.4609 36.0549C93.8414 36.0549 94.1832 35.9807 94.4864 35.8324C94.796 35.6776 95.0443 35.4647 95.2313 35.1938C95.4248 34.923 95.5312 34.6101 95.5506 34.2554H97.7467C97.7338 34.9326 97.5339 35.5486 97.1469 36.1033C96.7599 36.6579 96.2472 37.0998 95.6086 37.4287C94.9701 37.7512 94.2639 37.9124 93.4899 37.9124C92.6901 37.9124 91.9935 37.777 91.4002 37.5061C90.8068 37.2288 90.3134 36.8482 89.9199 36.3645C89.5265 35.8807 89.2298 35.3228 89.0299 34.6908C88.8364 34.0587 88.7396 33.3815 88.7396 32.6591V32.3205C88.7396 31.5981 88.8364 30.9209 89.0299 30.2888C89.2298 29.6503 89.5265 29.0891 89.9199 28.6054C90.3134 28.1217 90.8068 27.7444 91.4002 27.4735C91.9935 27.1961 92.6869 27.0575 93.4802 27.0575C94.3187 27.0575 95.054 27.2252 95.686 27.5605C96.3181 27.8895 96.8147 28.3506 97.1759 28.944C97.5436 29.5309 97.7338 30.2146 97.7467 30.995H95.5506C95.5312 30.6081 95.4345 30.2598 95.2603 29.9502C95.0927 29.6341 94.854 29.3826 94.5444 29.1956C94.2413 29.0085 93.8769 28.915 93.4512 28.915C92.9803 28.915 92.5901 29.0117 92.2805 29.2052C91.971 29.3923 91.7291 29.6503 91.5549 29.9792C91.3808 30.3017 91.255 30.6661 91.1776 31.0724C91.1067 31.4723 91.0712 31.8883 91.0712 32.3205V32.6591C91.0712 33.0912 91.1067 33.5105 91.1776 33.9168C91.2486 34.3231 91.3711 34.6875 91.5453 35.01C91.7259 35.3261 91.971 35.5808 92.2805 35.7743C92.5901 35.9614 92.9836 36.0549 93.4609 36.0549ZM101.878 29.2439V37.7189H99.5462V27.251H101.771L101.878 29.2439ZM105.08 27.1832L105.061 29.3504C104.919 29.3246 104.764 29.3052 104.596 29.2923C104.435 29.2794 104.274 29.273 104.113 29.273C103.713 29.273 103.361 29.331 103.058 29.4471C102.755 29.5567 102.5 29.718 102.294 29.9308C102.094 30.1372 101.939 30.3888 101.829 30.6855C101.72 30.9821 101.655 31.3143 101.636 31.6819L101.104 31.7206C101.104 31.0628 101.168 30.4533 101.297 29.8921C101.426 29.331 101.62 28.8376 101.878 28.4119C102.142 27.9862 102.471 27.6541 102.865 27.4154C103.265 27.1768 103.726 27.0575 104.248 27.0575C104.39 27.0575 104.542 27.0704 104.703 27.0962C104.871 27.122 104.996 27.151 105.08 27.1832ZM110.962 37.9124C110.188 37.9124 109.489 37.7867 108.863 37.5351C108.244 37.2771 107.715 36.9192 107.276 36.4612C106.844 36.0033 106.512 35.4647 106.28 34.8456C106.048 34.2264 105.931 33.5588 105.931 32.8429V32.4559C105.931 31.6368 106.051 30.8951 106.289 30.2307C106.528 29.5664 106.86 28.9988 107.286 28.528C107.712 28.0507 108.215 27.6863 108.795 27.4348C109.376 27.1832 110.005 27.0575 110.682 27.0575C111.43 27.0575 112.085 27.1832 112.646 27.4348C113.207 27.6863 113.671 28.041 114.039 28.499C114.413 28.9505 114.69 29.489 114.871 30.1147C115.058 30.7403 115.151 31.4304 115.151 32.185V33.1815H107.063V31.5078H112.849V31.324C112.836 30.9047 112.752 30.5113 112.597 30.1437C112.449 29.776 112.22 29.4793 111.91 29.2536C111.601 29.0279 111.188 28.915 110.672 28.915C110.285 28.915 109.94 28.9988 109.637 29.1665C109.34 29.3278 109.092 29.5632 108.892 29.8728C108.692 30.1824 108.537 30.5565 108.428 30.995C108.324 31.4272 108.273 31.9141 108.273 32.4559V32.8429C108.273 33.3008 108.334 33.7265 108.457 34.12C108.586 34.5069 108.773 34.8456 109.018 35.1358C109.263 35.426 109.559 35.655 109.908 35.8227C110.256 35.9839 110.653 36.0646 111.098 36.0646C111.659 36.0646 112.159 35.9517 112.597 35.726C113.036 35.5002 113.416 35.1809 113.739 34.7682L114.968 35.9581C114.742 36.2871 114.448 36.6031 114.087 36.9063C113.726 37.203 113.284 37.4448 112.762 37.6319C112.246 37.8189 111.646 37.9124 110.962 37.9124ZM119.466 27.251V37.7189H117.125V27.251H119.466ZM116.97 24.5033C116.97 24.1486 117.086 23.8551 117.319 23.623C117.557 23.3843 117.886 23.265 118.305 23.265C118.718 23.265 119.044 23.3843 119.283 23.623C119.521 23.8551 119.64 24.1486 119.64 24.5033C119.64 24.8516 119.521 25.1419 119.283 25.3741C119.044 25.6063 118.718 25.7224 118.305 25.7224C117.886 25.7224 117.557 25.6063 117.319 25.3741C117.086 25.1419 116.97 24.8516 116.97 24.5033ZM75.4466 54.0909C75.4466 53.8007 75.4015 53.5427 75.3112 53.317C75.2273 53.0912 75.0758 52.8848 74.8565 52.6978C74.6372 52.5107 74.3276 52.3301 73.9277 52.156C73.5343 51.9754 73.0312 51.7916 72.4185 51.6045C71.7477 51.3982 71.1285 51.1692 70.5609 50.9176C69.9998 50.6597 69.5096 50.363 69.0904 50.0276C68.6712 49.6857 68.3454 49.2955 68.1133 48.8569C67.8811 48.4119 67.765 47.8992 67.765 47.3187C67.765 46.7446 67.8843 46.2222 68.1229 45.7514C68.368 45.2805 68.7131 44.8742 69.1581 44.5324C69.6096 44.1841 70.1417 43.9164 70.7544 43.7294C71.3672 43.5359 72.0444 43.4391 72.7861 43.4391C73.831 43.4391 74.7307 43.6326 75.4853 44.0196C76.2464 44.4066 76.8301 44.9258 77.2365 45.5772C77.6492 46.2287 77.8556 46.9478 77.8556 47.7347H75.4466C75.4466 47.2703 75.3467 46.8607 75.1467 46.506C74.9532 46.1448 74.6565 45.861 74.2567 45.6546C73.8632 45.4482 73.3634 45.345 72.7571 45.345C72.1831 45.345 71.7058 45.4321 71.3252 45.6063C70.9447 45.7804 70.6609 46.0158 70.4739 46.3125C70.2868 46.6092 70.1933 46.9446 70.1933 47.3187C70.1933 47.5831 70.2546 47.825 70.3771 48.0443C70.4997 48.2571 70.6867 48.4571 70.9383 48.6441C71.1898 48.8247 71.5058 48.9956 71.8864 49.1569C72.2669 49.3181 72.7152 49.4729 73.2311 49.6212C74.0116 49.8534 74.692 50.1114 75.2725 50.3952C75.853 50.6726 76.3367 50.9886 76.7237 51.3433C77.1107 51.6981 77.4009 52.1012 77.5944 52.5527C77.7879 52.9977 77.8847 53.504 77.8847 54.0716C77.8847 54.665 77.7653 55.2003 77.5267 55.6776C77.2881 56.1484 76.9462 56.5515 76.5012 56.8869C76.0626 57.2159 75.5337 57.4706 74.9145 57.6512C74.3018 57.8254 73.6181 57.9124 72.8635 57.9124C72.1863 57.9124 71.5187 57.8221 70.8609 57.6415C70.2094 57.4609 69.616 57.1868 69.0807 56.8192C68.5454 56.4451 68.1197 55.9807 67.8037 55.426C67.4876 54.8649 67.3296 54.2103 67.3296 53.4621H69.7579C69.7579 53.92 69.8353 54.3102 69.9901 54.6327C70.1514 54.9552 70.3739 55.2196 70.6577 55.426C70.9415 55.626 71.2704 55.7743 71.6445 55.8711C72.025 55.9678 72.4314 56.0162 72.8635 56.0162C73.4311 56.0162 73.9051 55.9356 74.2857 55.7743C74.6727 55.6131 74.9629 55.3873 75.1564 55.0971C75.3499 54.8069 75.4466 54.4715 75.4466 54.0909ZM85.7018 55.6195V50.6274C85.7018 50.2533 85.6341 49.9308 85.4986 49.6599C85.3632 49.3891 85.1568 49.1794 84.8794 49.0311C84.6085 48.8827 84.2667 48.8086 83.8539 48.8086C83.4734 48.8086 83.1444 48.8731 82.8671 49.0021C82.5898 49.1311 82.3737 49.3052 82.2189 49.5245C82.0641 49.7438 81.9867 49.9921 81.9867 50.2694H79.6648C79.6648 49.8567 79.7648 49.4568 79.9647 49.0698C80.1647 48.6828 80.4549 48.3377 80.8354 48.0346C81.216 47.7315 81.6707 47.4928 82.1996 47.3187C82.7284 47.1445 83.3218 47.0575 83.9797 47.0575C84.7666 47.0575 85.4631 47.1897 86.0694 47.4541C86.6821 47.7186 87.1627 48.1184 87.5109 48.6538C87.8657 49.1827 88.043 49.847 88.043 50.6468V55.3003C88.043 55.7776 88.0753 56.2065 88.1398 56.587C88.2107 56.9611 88.3107 57.2868 88.4397 57.5641V57.7189H86.0501C85.9404 57.4674 85.8534 57.1481 85.7889 56.7611C85.7308 56.3677 85.7018 55.9872 85.7018 55.6195ZM86.0404 51.353L86.0597 52.7945H84.386C83.9539 52.7945 83.5734 52.8365 83.2444 52.9203C82.9155 52.9977 82.6414 53.1138 82.4221 53.2686C82.2028 53.4234 82.0383 53.6104 81.9287 53.8297C81.819 54.049 81.7642 54.2973 81.7642 54.5747C81.7642 54.852 81.8287 55.1068 81.9577 55.339C82.0867 55.5647 82.2737 55.7421 82.5188 55.8711C82.7704 56.0001 83.0735 56.0646 83.4282 56.0646C83.9055 56.0646 84.3215 55.9678 84.6763 55.7743C85.0375 55.5744 85.3212 55.3325 85.5276 55.0487C85.734 54.7585 85.8437 54.4844 85.8566 54.2264L86.6112 55.2616C86.5338 55.526 86.4016 55.8098 86.2145 56.1129C86.0275 56.4161 85.7824 56.7063 85.4793 56.9837C85.1826 57.2545 84.8246 57.4771 84.4054 57.6512C83.9926 57.8254 83.5153 57.9124 82.9735 57.9124C82.2899 57.9124 81.6803 57.777 81.145 57.5061C80.6097 57.2288 80.1905 56.8579 79.8873 56.3935C79.5842 55.9227 79.4326 55.3906 79.4326 54.7972C79.4326 54.2425 79.5358 53.7523 79.7422 53.3266C79.955 52.8945 80.2646 52.5333 80.671 52.2431C81.0837 51.9528 81.5868 51.7335 82.1802 51.5852C82.7736 51.4304 83.4508 51.353 84.2119 51.353H86.0404ZM96.7793 55.2519V47.251H99.1205V57.7189H96.9147L96.7793 55.2519ZM97.1082 53.0751L97.8919 53.0557C97.8919 53.7588 97.8145 54.407 97.6597 55.0004C97.5049 55.5873 97.2662 56.1 96.9437 56.5386C96.6212 56.9708 96.2085 57.3094 95.7054 57.5545C95.2023 57.7931 94.5992 57.9124 93.8962 57.9124C93.3867 57.9124 92.9191 57.8383 92.4934 57.6899C92.0677 57.5416 91.7001 57.3126 91.3905 57.003C91.0873 56.6934 90.8519 56.2903 90.6842 55.7937C90.5165 55.297 90.4327 54.7037 90.4327 54.0135V47.251H92.7643V54.0329C92.7643 54.4134 92.8094 54.7327 92.8997 54.9907C92.99 55.2422 93.1126 55.4454 93.2674 55.6002C93.4222 55.755 93.6028 55.8646 93.8091 55.9291C94.0155 55.9936 94.2348 56.0259 94.467 56.0259C95.1313 56.0259 95.6538 55.8969 96.0343 55.6389C96.4213 55.3744 96.6954 55.0197 96.8567 54.5747C97.0244 54.1296 97.1082 53.6298 97.1082 53.0751ZM93.6253 45.7707L95.5119 42.8587H98.1434L95.5119 45.7707H93.6253ZM107.895 55.5518V42.8587H110.237V57.7189H108.118L107.895 55.5518ZM101.084 52.601V52.3979C101.084 51.6045 101.178 50.8822 101.365 50.2307C101.552 49.5729 101.823 49.0085 102.178 48.5377C102.532 48.0604 102.965 47.696 103.474 47.4444C103.984 47.1865 104.558 47.0575 105.196 47.0575C105.828 47.0575 106.383 47.18 106.86 47.4251C107.338 47.6702 107.744 48.0217 108.079 48.4796C108.415 48.9311 108.682 49.4729 108.882 50.105C109.082 50.7306 109.224 51.4272 109.308 52.1947V52.8429C109.224 53.5911 109.082 54.2748 108.882 54.8939C108.682 55.5131 108.415 56.0484 108.079 56.4999C107.744 56.9514 107.334 57.2997 106.851 57.5448C106.373 57.7899 105.815 57.9124 105.177 57.9124C104.545 57.9124 103.974 57.7802 103.464 57.5158C102.961 57.2513 102.532 56.8805 102.178 56.4032C101.823 55.9259 101.552 55.3648 101.365 54.7198C101.178 54.0684 101.084 53.3621 101.084 52.601ZM103.416 52.3979V52.601C103.416 53.0783 103.458 53.5234 103.542 53.9361C103.632 54.3489 103.771 54.7133 103.958 55.0294C104.145 55.339 104.387 55.5841 104.683 55.7647C104.987 55.9388 105.348 56.0259 105.767 56.0259C106.296 56.0259 106.731 55.9098 107.073 55.6776C107.415 55.4454 107.683 55.1326 107.876 54.7391C108.076 54.3393 108.211 53.8942 108.282 53.404V51.6529C108.244 51.2724 108.163 50.9176 108.041 50.5887C107.924 50.2598 107.766 49.9728 107.567 49.7277C107.367 49.4761 107.118 49.2826 106.822 49.1472C106.531 49.0053 106.186 48.9343 105.786 48.9343C105.361 48.9343 105 49.0246 104.703 49.2052C104.406 49.3858 104.161 49.6341 103.968 49.9502C103.78 50.2662 103.642 50.6339 103.552 51.0531C103.461 51.4723 103.416 51.9206 103.416 52.3979ZM117.29 57.9124C116.516 57.9124 115.816 57.7867 115.19 57.5351C114.571 57.2771 114.042 56.9192 113.603 56.4612C113.171 56.0033 112.839 55.4647 112.607 54.8456C112.375 54.2264 112.259 53.5588 112.259 52.8429V52.4559C112.259 51.6368 112.378 50.8951 112.617 50.2307C112.855 49.5664 113.187 48.9988 113.613 48.528C114.039 48.0507 114.542 47.6863 115.122 47.4348C115.703 47.1832 116.332 47.0575 117.009 47.0575C117.757 47.0575 118.412 47.1832 118.973 47.4348C119.534 47.6863 119.998 48.041 120.366 48.499C120.74 48.9505 121.018 49.489 121.198 50.1147C121.385 50.7403 121.479 51.4304 121.479 52.185V53.1815H113.391V51.5078H119.176V51.324C119.163 50.9047 119.079 50.5113 118.925 50.1437C118.776 49.776 118.547 49.4793 118.238 49.2536C117.928 49.0279 117.515 48.915 116.999 48.915C116.612 48.915 116.267 48.9988 115.964 49.1665C115.667 49.3278 115.419 49.5632 115.219 49.8728C115.019 50.1824 114.864 50.5565 114.755 50.995C114.652 51.4272 114.6 51.9141 114.6 52.4559V52.8429C114.6 53.3008 114.661 53.7265 114.784 54.12C114.913 54.5069 115.1 54.8456 115.345 55.1358C115.59 55.426 115.887 55.655 116.235 55.8227C116.583 55.9839 116.98 56.0646 117.425 56.0646C117.986 56.0646 118.486 55.9517 118.925 55.726C119.363 55.5002 119.744 55.1809 120.066 54.7682L121.295 55.9581C121.069 56.2871 120.776 56.6031 120.414 56.9063C120.053 57.203 119.611 57.4448 119.089 57.6319C118.573 57.8189 117.973 57.9124 117.29 57.9124Z" fill="#007756"/>
<defs>
<linearGradient id="paint0_linear_668_2898" x1="0.528809" y1="0" x2="0.528809" y2="61.3178" gradientUnits="userSpaceOnUse">
<stop stop-color="#F970CB"/>
<stop offset="0.880208" stop-color="#FF00AA"/>
</linearGradient>
<linearGradient id="paint1_linear_668_2898" x1="0.5" y1="0.286804" x2="0.5" y2="61.3046" gradientUnits="userSpaceOnUse">
<stop stop-color="#F970CB"/>
<stop offset="0.880208" stop-color="#FF00AA"/>
</linearGradient>
<linearGradient id="paint2_linear_668_2898" x1="98.4179" y1="32.3843" x2="72.2689" y2="38.5325" gradientUnits="userSpaceOnUse">
<stop stop-color="#018383"/>
<stop offset="1" stop-color="#36B390"/>
</linearGradient>
</defs>
</svg>
